HIERARCHY
ROOT Hips
{
  OFFSET 5.84602e-005 68.8428 3.50346
  CHANNELS 6 Xposition Yposition Zposition Zrotation Xrotation Yrotation
  JOINT Spine
  {
    OFFSET 0 8.597 -4.6522
    CHANNELS 3 Zrotation Xrotation Yrotation
    JOINT Spine1
    {
      OFFSET 0 7.8454 0.4098
      CHANNELS 3 Zrotation Xrotation Yrotation
      JOINT Spine2
      {
        OFFSET 0 9.7078 -2.1609
        CHANNELS 3 Zrotation Xrotation Yrotation
        JOINT Neck
        {
          OFFSET 0 21.8761 -0.4549
          CHANNELS 3 Zrotation Xrotation Yrotation
          JOINT Head
          {
            OFFSET 0 12.3537 3.3602
            CHANNELS 3 Zrotation Xrotation Yrotation
            End Site
            {
              OFFSET 0.0001 18.9506 0.5657
            }
          }
        }
        JOINT LeftShoulder
        {
          OFFSET 2.2086 21.1115 7.2329
          CHANNELS 3 Zrotation Xrotation Yrotation
          JOINT LeftArm
          {
            OFFSET 13.1193 3.0282 -4.8998
            CHANNELS 3 Zrotation Xrotation Yrotation
            JOINT LeftForeArm
            {
              OFFSET 27.4081 -0.0973053 -0.2375
              CHANNELS 3 Zrotation Xrotation Yrotation
              JOINT LeftHand
              {
                OFFSET 22.8641 0.0662994 -0.1369
                CHANNELS 3 Zrotation Xrotation Yrotation
                JOINT LeftHandIndex1
                {
                  OFFSET 8.8614 0.775009 2.4612
                  CHANNELS 3 Zrotation Xrotation Yrotation
                  JOINT LeftHandIndex2
                  {
                    OFFSET 3.3146 -0.808304 0.5841
                    CHANNELS 3 Zrotation Xrotation Yrotation
                    JOINT LeftHandIndex3
                    {
                      OFFSET 2.2628 -0.552002 0.3989
                      CHANNELS 3 Zrotation Xrotation Yrotation
                      End Site
                      {
                        OFFSET 1.6102 -0.4807 0.2612
                      }
                    }
                  }
                }
                JOINT LeftHandMiddle1
                {
                  OFFSET 8.9937 0.895004 0.2143
                  CHANNELS 3 Zrotation Xrotation Yrotation
                  JOINT LeftHandMiddle2
                  {
                    OFFSET 4.0984 0.0113983 -0.0242
                    CHANNELS 3 Zrotation Xrotation Yrotation
                    JOINT LeftHandMiddle3
                    {
                      OFFSET 2.2716 0.00689697 -0.0138001
                      CHANNELS 3 Zrotation Xrotation Yrotation
                      End Site
                      {
                        OFFSET 2.0404 -0.1441 0.0027
                      }
                    }
                  }
                }
                JOINT LeftHandRing1
                {
                  OFFSET 8.5234 0.597198 -2.0164
                  CHANNELS 3 Zrotation Xrotation Yrotation
                  JOINT LeftHandRing2
                  {
                    OFFSET 3.7188 -0.188293 -0.2328
                    CHANNELS 3 Zrotation Xrotation Yrotation
                    JOINT LeftHandRing3
                    {
                      OFFSET 2.1191 -0.106598 -0.1332
                      CHANNELS 3 Zrotation Xrotation Yrotation
                      End Site
                      {
                        OFFSET 1.8737 -0.2304 -0.0886
                      }
                    }
                  }
                }
                JOINT LeftHandPinky1
                {
                  OFFSET 7.9094 -0.601089 -3.4825
                  CHANNELS 3 Zrotation Xrotation Yrotation
                  JOINT LeftHandPinky2
                  {
                    OFFSET 2.2874 -0.477005 -0.6314
                    CHANNELS 3 Zrotation Xrotation Yrotation
                    JOINT LeftHandPinky3
                    {
                      OFFSET 1.6774 -0.349396 -0.4633
                      CHANNELS 3 Zrotation Xrotation Yrotation
                      End Site
                      {
                        OFFSET 1.4888 -0.4091 -0.3416
                      }
                    }
                  }
                }
                JOINT LeftHandThumb1
                {
                  OFFSET 1.833 -1.3875 1.3896
                  CHANNELS 3 Zrotation Xrotation Yrotation
                  JOINT LeftHandThumb2
                  {
                    OFFSET 3.4129 -1.121 2.5732
                    CHANNELS 3 Zrotation Xrotation Yrotation
                    JOINT LeftHandThumb3
                    {
                      OFFSET 2.2474 -0.804199 1.6192
                      CHANNELS 3 Zrotation Xrotation Yrotation
                      End Site
                      {
                        OFFSET 1.6527 -0.5689 1.1317
                      }
                    }
                  }
                }
              }
            }
          }
        }
        JOINT RightShoulder
        {
          OFFSET -2.2086 21.1115 7.2329
          CHANNELS 3 Zrotation Xrotation Yrotation
          JOINT RightArm
          {
            OFFSET -13.1216 3.0287 -4.9007
            CHANNELS 3 Zrotation Xrotation Yrotation
            JOINT RightForeArm
            {
              OFFSET -27.4081 -0.0973053 -0.2375
              CHANNELS 3 Zrotation Xrotation Yrotation
              JOINT RightHand
              {
                OFFSET -22.8641 0.0664063 -0.1369
                CHANNELS 3 Zrotation Xrotation Yrotation
                JOINT RightHandIndex1
                {
                  OFFSET -8.8614 0.774994 2.4612
                  CHANNELS 3 Zrotation Xrotation Yrotation
                  JOINT RightHandIndex2
                  {
                    OFFSET -3.3146 -0.808304 0.5841
                    CHANNELS 3 Zrotation Xrotation Yrotation
                    JOINT RightHandIndex3
                    {
                      OFFSET -2.2628 -0.552002 0.3989
                      CHANNELS 3 Zrotation Xrotation Yrotation
                      End Site
                      {
                        OFFSET -1.6102 -0.4807 0.2612
                      }
                    }
                  }
                }
                JOINT RightHandMiddle1
                {
                  OFFSET -8.9937 0.894989 0.2143
                  CHANNELS 3 Zrotation Xrotation Yrotation
                  JOINT RightHandMiddle2
                  {
                    OFFSET -4.0984 0.0113983 -0.0242
                    CHANNELS 3 Zrotation Xrotation Yrotation
                    JOINT RightHandMiddle3
                    {
                      OFFSET -2.2716 0.00691223 -0.0138001
                      CHANNELS 3 Zrotation Xrotation Yrotation
                      End Site
                      {
                        OFFSET -2.0404 -0.1441 0.0027
                      }
                    }
                  }
                }
                JOINT RightHandRing1
                {
                  OFFSET -8.5234 0.597198 -2.0164
                  CHANNELS 3 Zrotation Xrotation Yrotation
                  JOINT RightHandRing2
                  {
                    OFFSET -3.7188 -0.188309 -0.2328
                    CHANNELS 3 Zrotation Xrotation Yrotation
                    JOINT RightHandRing3
                    {
                      OFFSET -2.1191 -0.106598 -0.1332
                      CHANNELS 3 Zrotation Xrotation Yrotation
                      End Site
                      {
                        OFFSET -1.8737 -0.2304 -0.0886
                      }
                    }
                  }
                }
                JOINT RightHandPinky1
                {
                  OFFSET -7.9094 -0.601105 -3.4825
                  CHANNELS 3 Zrotation Xrotation Yrotation
                  JOINT RightHandPinky2
                  {
                    OFFSET -2.2874 -0.477005 -0.6314
                    CHANNELS 3 Zrotation Xrotation Yrotation
                    JOINT RightHandPinky3
                    {
                      OFFSET -1.6774 -0.349396 -0.4633
                      CHANNELS 3 Zrotation Xrotation Yrotation
                      End Site
                      {
                        OFFSET -1.4888 -0.4091 -0.3416
                      }
                    }
                  }
                }
                JOINT RightHandThumb1
                {
                  OFFSET -1.833 -1.38751 1.3896
                  CHANNELS 3 Zrotation Xrotation Yrotation
                  JOINT RightHandThumb2
                  {
                    OFFSET -3.41299 -1.12099 2.5732
                    CHANNELS 3 Zrotation Xrotation Yrotation
                    JOINT RightHandThumb3
                    {
                      OFFSET -2.24741 -0.804108 1.6192
                      CHANNELS 3 Zrotation Xrotation Yrotation
                      End Site
                      {
                        OFFSET -1.6527 -0.5689 1.1317
                      }
                    }
                  }
                }
              }
            }
          }
        }
      }
    }
  }
  JOINT RightUpLeg
  {
    OFFSET -9.1966 3.8861 -0.7581
    CHANNELS 3 Zrotation Xrotation Yrotation
    JOINT RightLeg
    {
      OFFSET -0.7359 -41.0265 0
      CHANNELS 3 Zrotation Xrotation Yrotation
      JOINT RightFoot
      {
        OFFSET 0 -40.2855 0
        CHANNELS 3 Zrotation Xrotation Yrotation
        JOINT RightToeBase
        {
          OFFSET 0 -5.6122 11.7359
          CHANNELS 3 Zrotation Xrotation Yrotation
          End Site
          {
            OFFSET 0 0 7.8731
          }
        }
      }
    }
  }
  JOINT LeftUpLeg
  {
    OFFSET 9.1965 3.8864 -0.7581
    CHANNELS 3 Zrotation Xrotation Yrotation
    JOINT LeftLeg
    {
      OFFSET 0.7359 -41.0268 0
      CHANNELS 3 Zrotation Xrotation Yrotation
      JOINT LeftFoot
      {
        OFFSET 0 -40.2855 0
        CHANNELS 3 Zrotation Xrotation Yrotation
        JOINT LeftToeBase
        {
          OFFSET 0 -5.6122 11.7359
          CHANNELS 3 Zrotation Xrotation Yrotation
          End Site
          {
            OFFSET 0 0 7.8731
          }
        }
      }
    }
  }
}
MOTION
Frames:	4
Frame Time:	0.0333333
5.84602e-005 68.8428 3.50346 0 0 -0 0 0 -0 0 0 -0 0 0 -0 0 0 -0 0 0 -0 0 0 -0 0 0 -0 0 0 -0 0 0 -0 0 0 -0 0 0 -0 0 0 -0 0 0 -0 -0.0146107 -8.87603e-005 -2.63497e-007 2.99804e-018 -2.42657e-020 -1.42182e-022 0 0 -0 -0.0187562 -0.001176 5.858e-005 5.06224e-018 3.88251e-019 1.21329e-020 0 0 -0 -0.012269 -0.00324817 0.000675346 -1.74678e-018 3.88251e-019 -0 0 0 -0 0 0 -0 0 0 -0 0 0 -0 0 0 -0 0 0 -0 0 0 -0 0 0 -0 0 0 -0 0 0 -0 0 0 -0 0.0149955 -9.10982e-005 2.64101e-007 -9.69331e-018 1.21329e-020 -4.7394e-023 0 0 -0 0.0189956 -0.00119102 -5.96516e-005 -5.41541e-019 0 2.42657e-020 0 0 -0 0.0122698 -0.00324857 -0.000673756 -2.00796e-019 0 -1.94126e-019 0 0 -0 0 0 -0 0 0 -0 3.39842 1.33031 -0.0637918 -5.65207e-008 0.834868 -0.000436188 -3.39935 -2.16518 -0.0642563 -8.89002e-024 -1.18485e-023 -1.48106e-024 -3.39844 1.35642 0.0640283 -3.18788e-007 0.782166 -0.000588827 3.39931 -2.13858 0.0634662 1.1399e-023 0 -0 
-0.562059 65.2736 0.840623 0 2.72662 -0 -0.442832 0.958185 3.24858 -0.93946 1.88976 6.5058 -0.93946 1.88976 6.5058 14.9081 -0.0891248 -0.106677 0.00631776 -0.0724778 -0.0516489 28.5907 8.96764 -78.8208 -41.0887 -15.3914 -13.3896 -62.4636 -39.0484 -84.4977 -31.351 31.6028 12.8376 -2.27297e-006 1.23979e-007 -1.31682e-006 3.68411e-006 5.27945e-007 5.23904e-006 3.28377e-006 -6.05619e-007 1.14035e-006 -2.27297e-006 1.23979e-007 -1.31682e-006 -0.0145781 -8.8791e-005 1.02415e-005 3.28394e-006 -6.05763e-007 1.14027e-006 -2.27297e-006 1.23979e-007 -1.31682e-006 -0.018761 -0.00117909 6.44563e-005 3.284e-006 -6.05793e-007 1.14022e-006 -2.27297e-006 1.23979e-007 -1.31682e-006 -0.0122189 -0.00323486 0.000674033 3.28394e-006 -6.05722e-007 1.14019e-006 -2.27297e-006 1.23979e-007 -1.31682e-006 3.68411e-006 5.27945e-007 5.23904e-006 3.28377e-006 -6.05619e-007 1.14035e-006 -1.00074 -19.4842 7.55393 81.2687 7.03084 21.0498 -12.9697 -3.97157 42.9893 71.1015 5.08163 -16.7522 3.97569e-016 -1.49089e-016 1.97542e-015 -7.23348e-033 4.96962e-017 8.33964e-015 -0 0 5.15132e-015 3.97569e-016 -1.49089e-016 1.97542e-015 0.0150303 -9.22923e-005 8.08338e-008 -0 0 1.18525e-014 3.97569e-016 -1.49089e-016 1.97542e-015 0.0190538 -0.00120129 -5.70991e-005 7.28467e-033 -9.93923e-017 4.19933e-015 3.97569e-016 -1.49089e-016 1.97542e-015 0.0122961 -0.00325415 -0.000674351 -6.52765e-033 -9.93923e-017 -3.76293e-015 3.97569e-016 -1.49089e-016 1.97542e-015 -7.23348e-033 4.96962e-017 8.33964e-015 -0 0 5.15132e-015 -18.676 -18.8155 -12.2345 2.40133 22.7166 -0.584798 20.9049 -3.77825 -7.79611 -1.85372e-008 1.04822e-007 -7.59038e-009 8.69841 -26.6675 15.1589 1.2448 42.8237 -0.742687 -11.9123 -17.5429 3.52025 -7.95139e-016 -1.19271e-015 -0 
-0.528323 65.0813 1.7421 0 0.894726 -0 -0.340083 1.25537 3.06004 -0.746995 2.49076 6.12964 -0.746995 2.49076 6.12964 14.1617 -0.407987 -0.487591 0.028259 -0.331415 -0.236079 26.2496 11.1118 -74.8023 -38.466 -14.5307 -12.5497 -56.6918 -41.2859 -79.5798 -29.0749 29.8198 11.8467 -1.80812e-006 3.69549e-007 -7.05872e-007 -1.01155e-006 7.17265e-007 1.0123e-006 -6.74369e-007 4.78177e-007 6.74866e-007 -1.80812e-006 3.69549e-007 -7.05872e-007 -0.0146182 -9.61575e-005 4.52808e-006 -6.74369e-007 4.78091e-007 6.74928e-007 -1.80812e-006 3.69549e-007 -7.05872e-007 -0.0187962 -0.0011753 5.43198e-005 -6.74363e-007 4.78067e-007 6.74952e-007 -1.80812e-006 3.69549e-007 -7.05872e-007 -0.0122686 -0.00324987 0.000684952 -6.74348e-007 4.78109e-007 6.74937e-007 -1.80812e-006 3.69549e-007 -7.05872e-007 -1.01155e-006 7.17265e-007 1.0123e-006 -6.74369e-007 4.78177e-007 6.74866e-007 -0.511271 -18.8914 8.03663 75.7694 6.28398 19.7887 -12.6244 -4.09881 40.1289 67.2786 4.30324 -15.7149 -1.07869e-006 -5.60079e-007 1.13841e-006 1.19459e-007 -3.65232e-007 4.4342e-006 -1.07869e-006 -5.60079e-007 1.13841e-006 -1.07869e-006 -5.60079e-007 1.13841e-006 0.0150051 -9.44343e-005 1.15021e-005 -1.07864e-006 -5.5993e-007 1.13849e-006 -1.07869e-006 -5.60079e-007 1.13841e-006 0.0190233 -0.00118861 -5.17154e-005 -1.07861e-006 -5.59894e-007 1.13852e-006 -1.07869e-006 -5.60079e-007 1.13841e-006 0.0123055 -0.00325268 -0.000669213 -1.07861e-006 -5.59974e-007 1.1385e-006 -1.07869e-006 -5.60079e-007 1.13841e-006 1.19459e-007 -3.65232e-007 4.4342e-006 -1.07869e-006 -5.60079e-007 1.13841e-006 -17.2963 -16.6949 -11.4917 1.89953 23.6005 -0.419425 19.755 -4.9315 -6.36815 -8.7581e-009 5.25187e-008 -3.51947e-009 7.6135 -23.7087 14.0485 1.46166 41.8678 -0.899824 -11.3597 -17.81 2.88563 -8.75871e-009 -5.2514e-008 -3.58777e-009 
-0.527366 64.7037 2.4429 -0 -0.686922 -0 -0.298732 1.58666 3.06004 -0.682197 3.15514 6.13181 -0.682196 3.15514 6.13181 14.2831 -0.715219 -0.853024 0.0485711 -0.580159 -0.413115 26.2496 11.1118 -74.8024 -38.466 -14.5307 -12.5497 -56.6918 -41.2859 -79.5798 -29.0921 29.819 11.8391 -2.69636e-007 1.91197e-007 2.70114e-007 -6.74089e-008 4.77993e-008 6.75284e-008 -4.25059e-006 1.45515e-006 -6.37034e-008 -2.69636e-007 1.91197e-007 2.70114e-007 -0.0146577 -8.42025e-005 -3.83226e-007 -4.25079e-006 1.45515e-006 -6.35141e-008 -2.69636e-007 1.91197e-007 2.70114e-007 -0.01873 -0.00117535 5.36789e-005 -4.25084e-006 1.45514e-006 -6.34212e-008 -2.69636e-007 1.91197e-007 2.70114e-007 -0.0122833 -0.00324935 0.000674958 -4.25075e-006 1.45513e-006 -6.34177e-008 -2.69636e-007 1.91197e-007 2.70114e-007 -6.74089e-008 4.77993e-008 6.75284e-008 -4.25059e-006 1.45515e-006 -6.37034e-008 0.0476578 -19.3892 8.96674 74.9544 5.91904 19.7751 -12.861 -4.29711 39.8224 67.6966 3.82793 -15.6687 -1.07841e-006 -5.60269e-007 1.13824e-006 -1.07841e-006 -5.60269e-007 1.13824e-006 -1.07841e-006 -5.60269e-007 1.13824e-006 -1.07841e-006 -5.60269e-007 1.13824e-006 0.0150473 -9.43189e-005 6.6647e-006 -1.07836e-006 -5.6012e-007 1.13831e-006 -1.07841e-006 -5.60269e-007 1.13824e-006 0.018997 -0.00119456 -5.74645e-005 -1.07834e-006 -5.60085e-007 1.13834e-006 -1.07841e-006 -5.60269e-007 1.13824e-006 0.0123258 -0.00325363 -0.000674394 -1.07834e-006 -5.60164e-007 1.13833e-006 -1.07841e-006 -5.60269e-007 1.13824e-006 -1.07841e-006 -5.60269e-007 1.13824e-006 -1.07841e-006 -5.60269e-007 1.13824e-006 -17.456 -15.7528 -11.53 1.58266 25.6142 -0.295648 20.0214 -6.08731 -5.43617 2.62769e-008 6.21888e-009 1.6877e-006 7.64811 -22.3377 14.0086 1.82367 43.1713 -1.13577 -11.6532 -18.852 2.48763 -6.65614e-008 -1.55123e-007 2.24018e-006 
